GREEK and ENGLISH Languages

To view the subtitles or change languages on PC, download and install DivX7 player  
http://www.divx.com/en/win

To view the movie on TV, just burn the video on a dvd disk.

Movie Sample, Trailer, Snapshots and Info.txt Included.

-------------------------------------------------------------------------------

Cars (2006) Original DVD rip to DivX7 pro 
http://www.imdb.com/title/tt0317219/

Plot: Lightning McQueen, a hotshot rookie race car driven to succeed, discovers that life is about the journey, not the finish line, when he finds himself unexpectedly detoured in the sleepy Route 66 town of Radiator Springs. On route across the country to the big Piston Cup Championship in California to compete against two seasoned pros, McQueen gets to know the town's offbeat characters--including Sally, a snazzy 2002 Porsche, Doc Hudson, a 1951 Hudson Hornet with a mysterious past, and Mater, a rusty but trusty tow truck, who help him realize that there are more important things than trophies, fame and sponsorship. 

---------------------------------------------------------------------------------

Format                           : DivX
Format/Info                      : Hack of AVI
File size                        : 695 MiB
Duration                         : 1h 51mn
Overall bit rate                 : 869 Kbps

Video
ID                               : 0
Format                           : MPEG-4 Visual
Format settings, BVOP            : Yes
Format settings, QPel            : No
Format settings, GMC             : No warppoints
Format settings, Matrix          : Default (H.263)
Muxing mode                      : Packed bitstream
Codec ID                         : DX50
Codec ID/Hint                    : DivX 5
Duration                         : 1h 51mn
Bit rate                         : 599 Kbps
Width                            : 720 pixels
Height                           : 576 pixels
Display aspect ratio             : 16:9
Frame rate                       : 25.000 fps
Standard                         : PAL
Resolution                       : 24 bits
Colorimetry                      : 4:2:0
Scan type                        : Progressive
Bits/(Pixel*Frame)               : 0.058
Stream size                      : 479 MiB (69%)
Title                            : Video 
Writing library                  : DivX 2151

Audio #1
ID                               : 1
Format                           : MPEG Audio
Format version                   : Version 1
Format profile                   : Layer 3
Codec ID                         : 55
Codec ID/Hint                    : MP3
Duration                         : 1h 51mn
Bit rate mode                    : Constant
Bit rate                         : 128 Kbps
Channel(s)                       : 2 channels
Sampling rate                    : 48.0 KHz
Resolution                       : 16 bits
Stream size                      : 102 MiB (15%)
Alignment                        : Split accross interleaves
Interleave, duration             : 40 ms (1.00 video frame)
Interleave, preload duration     : 500 ms
Title                            : Audio En

Audio #2
ID                               : 2
Format                           : MPEG Audio
Format version                   : Version 1
Format profile                   : Layer 3
Codec ID                         : 55
Codec ID/Hint                    : MP3
Duration                         : 1h 51mn
Bit rate mode                    : Constant
Bit rate                         : 128 Kbps
Channel(s)                       : 2 channels
Sampling rate                    : 48.0 KHz
Resolution                       : 16 bits
Stream size                      : 102 MiB (15%)
Alignment                        : Split accross interleaves
Interleave, duration             : 40 ms (1.00 video frame)
Interleave, preload duration     : 500 ms
Title                            : Audio Gr

-------------------------------------------------------------------------------
  
http://thepiratebay.org/user/OmifastGR

!